<?xml version="1.0" encoding="utf-8"?>
<!-- Generator: Adobe Illustrator 15.0.0, SVG Export Plug-In . SVG Version: 6.00 Build 0)  -->
<!DOCTYPE svg PUBLIC "-//W3C//DTD SVG 1.1//EN" "http://www.w3.org/Graphics/SVG/1.1/DTD/svg11.dtd">
<svg version="1.1" id="Layer_1" xmlns="http://www.w3.org/2000/svg" xmlns:xlink="http://www.w3.org/1999/xlink" x="0px" y="0px"
	 width="640px" height="130px" viewBox="0 0 640 130" enable-background="new 0 0 640 130" xml:space="preserve">
<path fill="#E6E6E6" d="M566.002,56.002c-22.334,0-54,34.522-54,56.319c0,9.817,7.541,15.68,20.176,15.68
	c13.736,0,22.807-7.049,33.824-7.049c11.109,0,20.205,7.049,33.82,7.049c12.639,0,20.18-5.862,20.18-15.68
	C620.002,90.524,588.334,56.002,566.002,56.002z M524.579,52.455c-2.927-9.747-11.936-16.058-20.127-14.098
	c-8.187,1.955-12.454,11.443-9.532,21.186c2.928,9.747,11.936,16.058,20.127,14.106C523.238,71.681,527.506,62.202,524.579,52.455z
	 M548.406,46.61c8.701-2.29,13.056-14.045,9.725-26.257C554.805,8.141,545.049,0.1,536.348,2.389s-13.057,14.045-9.725,26.257
	C529.949,40.857,539.709,48.904,548.406,46.61z M627.541,38.357c-8.189-1.955-17.189,4.355-20.125,14.102
	c-2.918,9.743,1.354,19.23,9.535,21.19c8.191,1.951,17.199-4.354,20.127-14.102C640.004,49.801,635.732,40.317,627.541,38.357z
	 M583.598,46.61c8.701,2.29,18.457-5.753,21.779-17.965c3.34-12.212-1.02-23.963-9.721-26.257
	c-8.701-2.289-18.457,5.752-21.779,17.965C570.537,32.565,574.896,44.32,583.598,46.61z"/>
<path fill="#E6E6E6" d="M402.115,56.324c-22.334,0-54,34.522-54,56.319c0,9.817,7.541,15.68,20.176,15.68
	c13.736,0,22.807-7.049,33.824-7.049c11.108,0,20.204,7.049,33.819,7.049c12.639,0,20.18-5.862,20.18-15.68
	C456.114,90.847,424.446,56.324,402.115,56.324z M360.691,52.777c-2.926-9.747-11.936-16.058-20.127-14.098
	c-8.186,1.955-12.453,11.443-9.531,21.186c2.928,9.747,11.936,16.058,20.127,14.106C359.352,72.003,363.619,62.524,360.691,52.777z
	 M384.52,46.933c8.701-2.29,13.055-14.045,9.725-26.257c-3.326-12.213-13.082-20.254-21.783-17.965s-13.057,14.045-9.725,26.257
	C366.063,41.18,375.822,49.227,384.52,46.933z M463.653,38.68c-8.189-1.955-17.189,4.355-20.125,14.102
	c-2.918,9.743,1.354,19.23,9.535,21.19c8.191,1.951,17.199-4.354,20.127-14.102C476.116,50.123,471.845,40.64,463.653,38.68z
	 M419.71,46.933c8.701,2.29,18.457-5.753,21.779-17.965c3.34-12.212-1.02-23.963-9.721-26.257
	c-8.701-2.289-18.457,5.752-21.779,17.965C406.649,32.888,411.009,44.643,419.71,46.933z"/>
<path fill="#E6E6E6" d="M238.002,56.324c-22.334,0-54,34.522-54,56.319c0,9.817,7.541,15.68,20.176,15.68
	c13.736,0,22.807-7.049,33.824-7.049c11.108,0,20.204,7.049,33.819,7.049c12.639,0,20.18-5.862,20.18-15.68
	C292.001,90.847,260.333,56.324,238.002,56.324z M196.58,52.777c-2.927-9.747-11.936-16.058-20.127-14.098
	c-8.187,1.955-12.454,11.443-9.532,21.186c2.928,9.747,11.936,16.058,20.127,14.106C195.239,72.003,199.506,62.524,196.58,52.777z
	 M220.407,46.933c8.701-2.29,13.056-14.045,9.725-26.257c-3.326-12.213-13.082-20.254-21.783-17.965s-13.057,14.045-9.725,26.257
	C201.95,41.18,211.709,49.227,220.407,46.933z M299.541,38.68c-8.189-1.955-17.189,4.355-20.125,14.102
	c-2.918,9.743,1.354,19.23,9.535,21.19c8.191,1.951,17.199-4.354,20.127-14.102C312.003,50.123,307.732,40.64,299.541,38.68z
	 M255.597,46.933c8.701,2.29,18.457-5.753,21.779-17.965c3.34-12.212-1.02-23.963-9.721-26.257
	c-8.701-2.289-18.457,5.752-21.779,17.965C242.537,32.888,246.896,44.643,255.597,46.933z"/>
<path fill="#E6E6E6" d="M74.002,56.002c-22.334,0-54,34.522-54,56.319c0,9.817,7.541,15.68,20.176,15.68
	c13.736,0,22.807-7.049,33.824-7.049c11.109,0,20.205,7.049,33.82,7.049c12.639,0,20.18-5.862,20.18-15.68
	C128.002,90.524,96.334,56.002,74.002,56.002z M32.58,52.455c-2.927-9.747-11.936-16.058-20.127-14.098
	C4.266,40.313-0.001,49.801,2.92,59.543c2.928,9.747,11.936,16.058,20.127,14.106C31.239,71.681,35.506,62.202,32.58,52.455z
	 M56.407,46.61c8.701-2.29,13.056-14.045,9.725-26.257C62.805,8.141,53.049,0.1,44.348,2.389s-13.057,14.045-9.725,26.257
	C37.95,40.857,47.709,48.904,56.407,46.61z M135.541,38.357c-8.189-1.955-17.189,4.355-20.125,14.102
	c-2.918,9.743,1.354,19.23,9.535,21.19c8.191,1.951,17.199-4.354,20.127-14.102C148.004,49.801,143.732,40.317,135.541,38.357z
	 M91.598,46.61c8.701,2.29,18.457-5.753,21.779-17.965c3.34-12.212-1.02-23.963-9.721-26.257C94.955,0.1,85.199,8.141,81.877,20.354
	C78.537,32.565,82.896,44.32,91.598,46.61z"/>
</svg>
