<?xml version="1.0" encoding="utf-8"?>
<!-- Generator: Adobe Illustrator 15.0.0, SVG Export Plug-In . SVG Version: 6.00 Build 0)  -->
<!DOCTYPE svg PUBLIC "-//W3C//DTD SVG 1.1//EN" "http://www.w3.org/Graphics/SVG/1.1/DTD/svg11.dtd">
<svg version="1.1" id="Layer_1" xmlns="http://www.w3.org/2000/svg" xmlns:xlink="http://www.w3.org/1999/xlink" x="0px" y="0px"
	 width="106px" height="142px" viewBox="0 0 106 142" enable-background="new 0 0 106 142" xml:space="preserve">
<path fill="#295BA7" d="M72.182,46.133c0,0-0.529-0.074-1.461-0.163c2.451-4.58,3.873-9.989,3.873-15.789
	c0-16.474-11.43-29.829-25.526-29.829c-14.098,0-25.526,13.355-25.526,29.829c0,9.208,3.573,17.44,9.185,22.912
	c-1.187,0.712-2.349,1.486-3.471,2.334c0,0-39.229,25.563-26.729,60.89s52.622,23.389,52.622,23.389s3.174-1.123,2.955-2.906
	c-0.316-2.592-2.986-2.289-3.002-2.289c-0.002,0-32.894,0.021-35.217-29.129c0,0,0.216-15.254,18.801-21.305
	c0,0,6.267-3.52,10.157-10.435c0,0,1.297,5.153,17.938,4.073c0,0,4.322,9.494,2.16,15.762c0,0,12.535,2.369,13.832,10.148
	c1.297,7.778-5.188,1.725-5.188,1.725s-3.674-3.893-11.021-4.324c0,0-1.729,1.945,1.944,2.809c3.675,0.865,7.132,7.996,6.482,11.021
	s-4.322,0.863-4.322,0.863s-4.321-4.752-7.996-7.131c0,0-22.364-1.418-23.215-1.418c-2.866,0-5.189,2.235-5.189,4.994
	c0,0.94,3.545,14.918,39.211,13.063C110.865,123.284,122.75,51.104,72.182,46.133z M71.637,70.096
	c-2.43,0.295-9.203-0.399-6.773,3.665c-3.401,0.982-7.77-0.193-10.364-2.722c-2.987-2.861-3.546-6.018-3.699-10.17
	c0.022-4.175,2.035-9.349,5.06-11.991c1.274-1.103,4.633-2.459,5.317,0.302c0.423,2.034-2.541,3.722-2.27,5.964
	c4.081,0.263,6.723,3.166,9.875,4.49c2.416,1.035,7.793,0.382,9.112,4.014C79.412,67.445,74.238,69.78,71.637,70.096z"/>
</svg>
